inDegrees=yes
nColumns=22
nRows=31
DataType=double
version=3
OpenSimVersion=4.5
endheader
time	pelvis_tilt	pelvis_list	pelvis_rotation	pelvis_tx	pelvis_ty	pelvis_tz	hip_flexion_r	hip_adduction_r	hip_rotation_r	knee_angle_r	ankle_angle_r	mtp_angle_r	hip_flexion_l	hip_adduction_l	hip_rotation_l	knee_angle_l	ankle_angle_l	mtp_angle_l	lumbar_extension	lumbar_bending	lumbar_rotation
0.3783005993036741	-3.723294126741628	-0.9883483012836604	-5.324580491508624	0.4103910407077993	0.9603581963570454	0.01254470569283176	3.902938194055731	5.032568083617786	-10.13171170734724	-12.75708237539549	13.95584599163371	0	32.73987051053718	-10.49816985846276	-20.23276243244735	-38.82823754906151	3.406706642796358	0	-2.880012127853208	-0.2785427874748666	12.02401071164132
0.3897642538280279	-3.703275742080351	-1.434621571867705	-5.636557501290896	0.4217020025714737	0.9585095539462767	0.01314233530968526	2.878949740056932	5.503301225334446	-9.868201119897831	-12.44406894512144	14.6449335750532	0	32.7597095630049	-10.51521625512094	-20.89754263455412	-35.07712436191762	2.662831339583696	0	-2.876981277922385	0.1660540422813905	12.59232507594935
0.4012279083523816	-3.715763122668575	-1.918803269617401	-5.918469738646624	0.4330327925585775	0.9563413942373801	0.01363390191422725	1.933613496263591	5.991846434993825	-9.639982921379401	-12.23716015855037	15.34537503787425	0	32.77369497368588	-10.55307024959817	-21.5452757864235	-31.43987426367467	2.150853814974182	0	-2.857454707072479	0.6630479207550996	13.0933582878163
0.4126915628767354	-3.764024118784007	-2.417217229950331	-6.173167308983131	0.4443334419808127	0.9538804504899162	0.01401807031740677	1.09474515811541	6.472197073550062	-9.453841814512895	-12.16980382028347	16.05737438511593	0	32.80071797585646	-10.59298506239348	-22.16525256708524	-27.93196037975322	1.77388377948825	0	-2.828715414622128	1.184868320078181	13.52652446851226
0.4241552174010891	-3.846808339401769	-2.907293978220182	-6.405503845346848	0.4555778833864115	0.9511713373918214	0.0142941143866284	0.372293483158481	6.920629880727127	-9.316951149851915	-12.25189694641318	16.7717536081367	0	32.8447215792988	-10.61828656606768	-22.74401787032439	-24.56225103825662	1.477410338489101	0	-2.798920552625058	1.70562046097873	13.89452467980063
0.4356188719254429	-3.959413887426196	-3.375601931666096	-6.621250326396222	0.4667645438810679	0.9482766508371433	0.01446323875507664	-0.2371140174467638	7.323657567487547	-9.232532902979626	-12.4779324198066	17.46398785280192	0	32.89584910668862	-10.62224914288774	-23.24988881053909	-21.33273686883626	1.221689051847911	0	-2.776477858455106	2.210208894157022	14.20170428769736
0.4470825264497967	-4.094313935751612	-3.81892464702617	-6.827056948935609	0.4779061269312068	0.9452732218192053	0.01453059560616209	-0.7440080422761909	7.678459477609901	-9.195592795693001	-12.83731677480626	18.09785844752193	0	32.93588891573813	-10.6113647952619	-23.63734720127933	-18.24629308598449	0.9496612911095555	0	-2.771229608219898	2.694981350269878	14.45379612580113
0.4585461809741504	-4.242381036811532	-4.232122930430114	-7.029055156275804	0.489017345884416	0.9422403507585696	0.01450102131720877	-1.161930451460033	7.979747388640602	-9.195956458765306	-13.31797561919162	18.63972479586462	0	32.95013267880573	-10.59364987466715	-23.87433267886006	-15.32106517499362	0.6256013345065692	0	-2.793757593779582	3.153213859737527	14.65816805436135
0.4700098354985042	-4.393750235554211	-4.609052475319326	-7.229193366997978	0.5001152704314571	0.9392522632917655	0.01437103397285292	-1.515257400261851	8.222114286308866	-9.224837915969193	-13.89005865032232	19.06218685810509	0	32.93981259281076	-10.57752873352754	-23.96556818766456	-12.60580618764202	0.2590467417958324	0	-2.854326060760027	3.576498956695543	14.82369736828547
0.481473490022858	-4.539315027763799	-4.93081868857197	-7.424772533734573	0.5112436022369213	0.9363754566161373	0.01414066103992951	-1.847302640476613	8.389946378501126	-9.276463062602541	-14.48891584532534	19.35188149575822	0	32.9218351338486	-10.55938486101961	-23.95163638123899	-10.17975906127764	-0.112569935763021	0	-2.953957324572898	3.939181740932196	14.95855838007996
0.4929371445472118	-4.670794677943318	-5.162650973541012	-7.609482805879201	0.5224430258227732	0.9336669935168708	0.01381808903363689	-2.195940850878505	8.451559447744183	-9.349005454419299	-15.05605113382854	19.51924593357925	0	32.94321112856924	-10.52729739213899	-23.88972534223849	-8.191797576109607	-0.5024991255127257	0	-3.088250898413198	4.194314450169745	15.06626868631207
0.5044007990715655	-4.782473364401188	-5.275462293269742	-7.778424640530821	0.5337512351803653	0.9311789414630951	0.01340846789047842	-2.581413302498237	8.379272261877722	-9.439502858303362	-15.55946495145621	19.57299206279827	0	33.05022061210763	-10.47087832241699	-23.84066083868835	-6.789268775173368	-0.8330339862182988	0	-3.250298136715076	4.303359323150308	15.14799082240964
0.5158644535959193	-4.870894659074306	-5.251995875417616	-7.929048208079188	0.5452184684955679	0.9289627569534933	0.01290818656670848	-3.010966851476505	8.155385617506607	-9.544340655866131	-15.98887843017792	19.51066575462492	0	33.258592456396	-10.37725918058875	-23.85463239710573	-6.040260884539581	-1.053531426572867	0	-3.430485724911864	4.245089098121033	15.20250257553246
0.527328108120273	-4.935143677726204	-5.098325031759214	-8.061699640852122	0.5569202291884789	0.9270675490898853	0.01230362821601251	-3.48038426904093	7.783718897101748	-9.66326965170871	-16.35730531672528	19.31231214594913	0	33.53993680638405	-10.24054065239325	-23.96133937415826	-5.898384442728275	-1.183716015529335	0	-3.616071348508631	4.030099091252041	15.22609618967266
0.5387917626446268	-4.976826016091151	-4.833778358270671	-8.178019162802011	0.5689510056377733	0.9255301134052079	0.01158405854006354	-3.97192683927705	7.279792773533912	-9.800623142040562	-16.70452183916714	18.95446046521991	0	33.83240896849759	-10.057920736706	-24.16224208279096	-6.226925009272954	-1.334031670895175	0	-3.789862221572568	3.685392066483534	15.21193794786114
0.5502554171689805	-5.001559130918113	-4.489294314040038	-8.277181404646621	0.581408818510557	0.9243651003404928	0.01073688503065281	-4.456584160033082	6.670218916848373	-9.9670771182855	-17.0883410396995	18.41431631660102	0	34.06588588843935	-9.831653716432953	-24.42316541099073	-6.847975178865647	-1.660013460481875	0	-3.930738701737127	3.251954882935594	15.15127028927435
0.5617190716933343	-5.016794604374138	-4.113507023408184	-8.360632038808092	0.594401931625792	0.9235751871301889	0.009745927782088054	-4.908589235465523	5.999561916422695	-10.16589334427885	-17.56309334305615	17.66119070673812	0	34.15998410384778	-9.575977364439767	-24.65755275799181	-7.544515779128059	-2.469205130824022	0	-4.016117326950068	2.794110495050202	15.04249479388778
0.5731827262176881	-5.027333761355649	-3.724369855166616	-8.438095257515268	0.6080619412206991	0.9231507048422998	0.008612676892168578	-5.296385169473667	5.277564665330453	-10.38977154972698	-18.19540736188245	16.67495685265742	0	34.00803652392922	-9.268833892173598	-24.74984625852957	-8.055541153045981	-3.972767427983237	0	-4.016239692748075	2.338957883331091	14.88980951425567
0.5846463807420418	-5.033060255207007	-3.30766584575443	-8.512278877587232	0.6224107935554732	0.9230333121007217	0.007314741302271008	-5.5529598728093	4.473926179839986	-10.65895084966714	-19.11321226422126	15.48823126307874	0	33.5795108034126	-8.867906349529109	-24.69754686541792	-8.311616780743305	-5.940551291805444	0	-3.921964921424803	1.873524909898983	14.6982809447009
0.5961100352663956	-5.03712316918692	-2.848350355223239	-8.585362146263313	0.6374519024806919	0.9231384473797206	0.005849260631747066	-5.687195009606694	3.57513894842942	-10.93209493333163	-20.26367706455453	14.0423182315016	0	32.92687219797121	-8.359117438244219	-24.63275817085023	-8.500028403515138	-7.36121877799568	0	-3.727713671767736	1.379876387577613	14.48163951448157
0.6075736897907493	-5.041421361830996	-2.396910288011514	-8.630300495823748	0.6532653357469655	0.923447439988299	0.004279954755310228	-5.973339376290671	2.695378884174635	-11.0994075435599	-21.12957430342185	12.27228657704584	0	32.15283282009084	-7.81267605017142	-24.64505620660968	-8.842434147665724	-7.994699796376076	0	-3.434313069502837	0.8990402861656559	14.23648388453923
0.619037344315103	-5.048192272036935	-1.916022026799591	-8.642139624534718	0.6696435109535956	0.9239341143199551	0.002649291524988106	-6.36251171696416	1.797621277983145	-11.23131071634772	-21.79996959536216	10.29533665691231	0	31.41123491017842	-7.23261270278493	-24.67747105255395	-9.619702534551857	-6.750396551412037	0	-3.06722887713242	0.3682259050849364	13.97628696820509
0.6305009988394569	-5.057626318842727	-1.239493367708841	-8.577428212495867	0.6861505333873299	0.9246704497427629	0.0009013866522856851	-6.644807865707079	0.6861877763645629	-11.41853275281306	-22.58692140485829	8.181701170320228	0	30.81330452369508	-6.435804026605489	-24.56494240280873	-10.49801299056942	-5.955236119213498	0	-2.665687655188103	-0.4273288657589452	13.67559598079399
0.6419646533638107	-5.068951158787582	-0.3331382857865481	-8.413557778088332	0.7025688086287432	0.9256923489705197	-0.001004868769018099	-6.698697659065865	-0.6930817564140758	-11.71151442290613	-23.69696907818335	5.929284804144058	0	30.38097586597612	-5.382974985241058	-24.29104137177328	-11.37519268895234	-5.967148839290383	0	-2.260361917440596	-1.534101141986871	13.32161680989814
0.6534283078881644	-5.071472814508734	0.6535405859806066	-8.149358674525695	0.7188520283659057	0.9269990517113039	-0.003091873953204253	-6.48332570566775	-2.205070151227878	-12.1177691347559	-25.26040028396691	3.447322591445377	0	30.09162202043418	-4.254636691532613	-23.9853876391137	-12.51296670255241	-5.701853224011997	0	-1.895031971645919	-2.770602999648413	12.91893679721391
0.6648919624125181	-5.05382683528377	1.509006692953272	-7.821579223029687	0.7351025826875508	0.9286254003260541	-0.005407435423307124	-5.990538653394195	-3.655666605622117	-12.54880941867806	-27.3510899137558	0.6350036351177762	0	29.76185973963681	-3.243209831525121	-23.86928584867577	-13.69557128900244	-5.09914378001794	0	-1.587542662591945	-3.854650618225006	12.50325854978376
0.676355616936872	-5.019894692915419	2.129830961286315	-7.456706214436862	0.751243762560136	0.9305138122623553	-0.00802755854735307	-5.143706130894971	-4.958171054424124	-12.84276463150687	-30.12647136565696	-2.287530170879771	0	29.30961004347036	-2.422949081647001	-23.94684771321833	-14.74759020972349	-4.263339587614968	0	-1.345363923303412	-4.628255894066551	12.07633990852605
0.6878192714612257	-4.97951290086566	2.573520084322804	-7.09042302080838	0.7670923206116707	0.9325292670895011	-0.01092605855338179	-3.840322520699674	-6.182278829180184	-12.89051308372613	-33.79473394974745	-4.715592511423685	0	28.73246507056225	-1.723954672202557	-24.08488395438468	-15.61009384503651	-3.216390710971095	0	-1.161426891725639	-5.144373536180248	11.64595741432826
0.6992829259855795	-4.938583473783652	2.928303649368027	-6.732890179311494	0.7825583099631563	0.9345415743991274	-0.01398358145103821	-2.13123842309993	-7.381966711909917	-12.70844458257361	-38.1575871377298	-6.640270922076883	0	28.01018389898145	-1.049923112405375	-24.23850400461689	-16.1631831836746	-2.186268802394985	0	-1.021665322312694	-5.51968507944107	11.20961240607081
0.7107465805099332	-4.903192875707528	3.266705149636071	-6.387154969099309	0.7976300054170076	0.9364636690337315	-0.01707642656481889	-0.1532886480892881	-8.580945723530869	-12.34908980142413	-42.81018837840098	-8.328015225851862	0	27.1644951532772	-0.3409499926090087	-24.39844206181312	-16.43294338322955	-1.138785865373019	0	-0.9073809795288643	-5.855531940592972	10.76568075481631
0.7222102350342869	-4.870812794978777	3.612515450366337	-6.059258120571881	0.8123391817264562	0.938307747071109	-0.02009793384948022	1.969880181799395	-9.752682371984585	-11.84117368128151	-47.3689768558412	-10.21824191348317	0	26.19642526467484	0.4188975987238563	-24.55837569934163	-16.4150538725071	-0.1396118345028439	0	-0.8119103978397261	-6.193794100174379	10.31788051546677
